PathFileType	4	(X/Y/Z)	./resultDataOpenSim/trcMotMarkerGrf/sub09/qtm-12-02.trc
DataRate	CameraRate	NumFrames	NumMarkers	Units	OrigDataRate	OrigDataStartFrame	OrigNumFrames
250.000000	250.000000	7	24	m	250.000000	1	482
Frame#	Time	L.Toe.Tip			R.Toe.Tip			L.Ankle.Lat			R.Ankle.Lat			L.Ankle.Med			R.Ankle.Med			L.Heel			R.Heel			L.Knee.Lat			R.Knee.Lat			L.Knee.Med			R.Knee.Med			L.Thigh.Upper			R.Thigh.Upper			L.ASIS			R.ASIS			V.Sacral			L.Acromium			R.Acromium			C7			L.Elbow			R.Elbow			L.Wrist.Lat			R.Wrist.Lat
		X1	Y1	Z1	X2	Y2	Z2	X3	Y3	Z3	X4	Y4	Z4	X5	Y5	Z5	X6	Y6	Z6	X7	Y7	Z7	X8	Y8	Z8	X9	Y9	Z9	X10	Y10	Z10	X11	Y11	Z11	X12	Y12	Z12	X13	Y13	Z13	X14	Y14	Z14	X15	Y15	Z15	X16	Y16	Z16	X17	Y17	Z17	X18	Y18	Z18	X19	Y19	Z19	X20	Y20	Z20	X21	Y21	Z21	X22	Y22	Z22	X23	Y23	Z23	X24	Y24	Z24

1	0	-1.5055137	0.03687775	-0.036710051	-0.94049136	0.088800014	0.077243412	-1.6562708	0.075996648	-0.062438413	-1.0892576	0.068125407	0.10640405	-1.6276301	0.093819831	0.029857376	-1.0797403	0.11286373	0.01793327	NaN	NaN	NaN	-1.140526	0.029181945	0.052172072	-1.5154522	0.46938654	-0.13025739	-1.1620035	0.52131373	0.15048044	-1.5105159	0.47145267	-0.0039612611	-1.162416	0.50283223	0.02305488	-1.4090425	0.87811588	-0.17895655	-1.3642788	0.87184191	0.18919753	-1.3016441	0.95146063	-0.13006551	-1.2845268	0.95453694	0.1112982	-1.4483567	1.0159376	0.010288956	-1.2598869	1.4072883	-0.15057982	-1.3013554	1.4165839	0.17639178	-1.3435737	1.4648683	0.011767934	-1.3924361	1.0576286	-0.23103542	-1.4702136	1.0938008	0.24877031	-1.1698873	0.89980817	-0.21901401	-1.3610391	0.84748978	0.29311386
2	0.004	-1.5054643	0.036825144	-0.036719109	-0.923051	0.092892026	0.077816724	-1.6560811	0.076627498	-0.06198281	-1.072009	0.068468612	0.10660748	-1.6267218	0.094336096	0.030084654	-1.0635294	0.11343562	0.018067008	NaN	NaN	NaN	-1.1223621	0.028252021	0.052253956	-1.5132099	0.46933825	-0.13047725	-1.1552988	0.51980499	0.15063821	-1.5089774	0.47147143	-0.00383467	-1.155464	0.50132243	0.023020498	-1.4032689	0.87689814	-0.17869712	-1.3579588	0.87000661	0.18920808	-1.2953863	0.94979817	-0.13013041	-1.2778737	0.95280978	0.11128885	-1.4418942	1.0144145	0.010557436	-1.2538791	1.4058936	-0.15039487	-1.2954679	1.4149689	0.17652789	-1.3381599	1.4633609	0.012031937	-1.3859958	1.05576	-0.23151928	-1.4647503	1.0919775	0.24834136	-1.1626458	0.89905937	-0.21875163	-1.3552984	0.8458926	0.29333337
3	0.008	-1.5054215	0.036773619	-0.036730184	-0.90610316	0.096970222	0.078363734	-1.6558895	0.077277582	-0.061560915	-1.055009	0.068897445	0.10675555	-1.6258442	0.094864178	0.03030089	-1.0474402	0.11410767	0.018206154	NaN	NaN	NaN	-1.1043706	0.027426392	0.052367083	-1.5108813	0.46927639	-0.13060175	-1.148608	0.5182879	0.15077486	-1.507063	0.47149132	-0.0037139245	-1.1485632	0.49979895	0.022976224	-1.3974913	0.87565191	-0.17846752	-1.3516021	0.86815228	0.18922588	-1.2891479	0.94813595	-0.13019862	-1.2712187	0.95109597	0.11128935	-1.435528	1.0129144	0.010591318	-1.2478601	1.4044792	-0.15019752	-1.2895841	1.4133532	0.17669767	-1.3326142	1.4618372	0.012212099	-1.3794945	1.053985	-0.23188077	-1.4592732	1.0903332	0.24807157	-1.1554165	0.89828245	-0.2184857	-1.3495597	0.84429709	0.29354063
4	0.012	-1.5053806	0.036722603	-0.03674598	-0.88980646	0.10107675	0.078860255	-1.6556939	0.077979427	-0.061197436	-1.0383896	0.069465903	0.10683663	-1.625012	0.09542066	0.0305012	-1.0316354	0.11491605	0.018335586	NaN	NaN	NaN	-1.086631	0.026769323	0.05257813	-1.5083866	0.46919524	-0.1306212	-1.1419045	0.51676021	0.15088397	-1.5046451	0.47150372	-0.0036028621	-1.1417379	0.49824836	0.022920192	-1.3917114	0.87432893	-0.17828256	-1.3451755	0.8662683	0.18925232	-1.2829254	0.94646904	-0.13026096	-1.2645316	0.9493885	0.11129717	-1.4293581	1.0114635	0.010207564	-1.2418185	1.4030444	-0.14998221	-1.2836953	1.4117337	0.17690418	-1.3269099	1.4603072	0.012296396	-1.3729037	1.0523077	-0.23208698	-1.4535545	1.0888681	0.24799629	-1.1482014	0.89746177	-0.21822279	-1.3438123	0.84269162	0.2937417
5	0.016	-1.5053268	0.036671321	-0.036769487	-0.87410435	0.10524503	0.079309687	-1.6554818	0.078746416	-0.060900896	-1.0221908	0.0701971	0.10686974	-1.6242359	0.096004918	0.030680589	-1.0162507	0.11584875	0.018436783	NaN	NaN	NaN	-1.0691889	0.026285334	0.052935333	-1.5056703	0.46908692	-0.13058445	-1.1351819	0.51522375	0.15097379	-1.5018248	0.47148867	-0.0034972545	-1.134989	0.49667149	0.022861254	-1.3859423	0.87293076	-0.1781314	-1.3386807	0.86436235	0.18928795	-1.2767186	0.9448008	-0.13030646	-1.2578029	0.94768174	0.11130684	-1.4234617	1.0100787	0.0093580691	-1.2357552	1.4016025	-0.14975366	-1.2777967	1.4101068	0.17713099	-1.321096	1.4587898	0.012352905	-1.3662312	1.0506782	-0.23216261	-1.4473275	1.0874361	0.24803127	-1.1410121	0.89659327	-0.21796744	-1.3380568	0.84106947	0.29394998
6	0.02	-1.505246	0.036620542	-0.036803166	-0.85892008	0.10944502	0.079757601	-1.655233	0.079555868	-0.060663699	-1.0063067	0.071128016	0.10690808	-1.6235198	0.096596013	0.030832075	-1.0013108	0.11688598	0.018504313	NaN	NaN	NaN	-1.0521156	0.025979555	0.053373045	-1.5027028	0.46893657	-0.13053529	-1.1284587	0.51368534	0.15107137	-1.4987441	0.47141507	-0.0033781495	-1.1282864	0.49508397	0.022816449	-1.3801882	0.87152276	-0.17798844	-1.3321272	0.86244954	0.18933352	-1.2705297	0.94314348	-0.13033585	-1.2510476	0.94598145	0.11131512	-1.4178511	1.0087516	0.0081475829	-1.2296656	1.4001615	-0.14951868	-1.2718939	1.4084662	0.17737501	-1.3152121	1.4572843	0.01245025	-1.3594847	1.0490584	-0.23213364	-1.4406975	1.0859122	0.24806338	-1.1338537	0.89567635	-0.21771151	-1.3323045	0.83943471	0.29417181
7	0.024	-1.5051426	0.036572815	-0.036841008	-0.84422201	0.11359106	0.080211914	-1.6549329	0.080385478	-0.060475761	-0.99046326	0.07234148	0.10707654	-1.6228403	0.097184644	0.030952274	-0.98681582	0.11800263	0.018534627	NaN	NaN	NaN	-1.0355345	0.025898491	0.053740583	-1.4994837	0.46873082	-0.13048865	-1.1217278	0.51216953	0.15121072	-1.4954808	0.47125179	-0.0032328171	-1.1215913	0.49350627	0.022802899	-1.3744474	0.87015774	-0.17783705	-1.3255104	0.86054287	0.18938837	-1.2643579	0.94151106	-0.13036117	-1.2442889	0.94429452	0.11131739	-1.4124904	1.0074527	0.0067778396	-1.2235399	1.3987203	-0.14927548	-1.265991	1.4068073	0.17764333	-1.30928	1.4557637	0.012589912	-1.3526875	1.0474356	-0.2320493	-1.4341186	1.0842812	0.24804052	-1.1267256	0.89471136	-0.21744667	-1.326562	0.83779159	0.29440794
